<svg xmlns="http://www.w3.org/2000/svg" width="40" height="40" viewBox="0 0 40 40">
    <defs>
        <linearGradient id="a" x1="50%" x2="59.323%" y1="67.951%" y2="-3.085%">
            <stop offset="0%" stop-color="#5BAFC8"/>
            <stop offset="100%" stop-color="#536696"/>
        </linearGradient>
    </defs>
    <g fill="none" fill-rule="evenodd">
        <path fill="#536696" fill-rule="nonzero" d="M24.234.69a.831.831 0 0 1 .038 0 2.114 2.114 0 0 1 1.463.608l5.451 5.371c.153.15.197.196.27.284.242.292.36.614.36 1.02v6.356a.815.815 0 0 1-1.629 0V8.787h-5.93a.815.815 0 0 1-.814-.814l-.006-5.654H3.076a.485.485 0 0 0-.486.485v34.77c0 .27.218.487.486.487H29.7c.27 0 .487-.217.487-.486v-1.808a.815.815 0 0 1 1.63 0v1.808a2.115 2.115 0 0 1-2.117 2.114H3.076A2.114 2.114 0 0 1 .96 37.575V2.804C.96 1.636 1.908.69 3.076.69h21.158zm5.127 6.468l-4.294-4.231.004 4.231h4.29zM18.1 16.942h19.337a2.524 2.524 0 0 1 2.524 2.525v11.304a2.524 2.524 0 0 1-2.524 2.524H18.1a2.525 2.525 0 0 1-2.526-2.524V19.467a2.525 2.525 0 0 1 2.526-2.525zm0 1.63a.896.896 0 0 0-.897.895v11.304c0 .494.402.895.897.895h19.337c.494 0 .894-.4.894-.895V19.467c0-.495-.4-.896-.894-.896H18.1z"/>
        <text fill="#567BA4" font-family="Montserrat-Bold, Montserrat" font-size="8" font-weight="bold" letter-spacing=".128" transform="translate(.96 .69)">
            <tspan x="19" y="28">JPG</tspan>
        </text>
        <path fill="url(#a)" fill-rule="nonzero" d="M21.16 12.743H4.84c-1.12 0-1.12-1.649 0-1.649h16.32c1.12 0 1.12 1.649 0 1.649zm-7.253-4.784H4.84c-1.12 0-1.12-1.648 0-1.648h9.067c1.12 0 1.12 1.648 0 1.648z" transform="rotate(-180 13.48 9.871)"/>
    </g>
</svg>
